<svg xmlns="http://www.w3.org/2000/svg" style="display: none;">
  <!-- Clock icon -->
  <symbol id="icon-clock" viewBox="0 0 264 112">
      <path d="M162.593 54.6025C162.59 37.6978 148.883 23.9966 131.978 24C115.073 24.0034 101.372 37.7109 101.375 54.6157C101.378 67.9316 109.989 79.7178 122.674 83.7681C122.795 83.8062 122.921 83.8257 123.047 83.8252C123.289 83.8247 123.525 83.7603 123.732 83.6377C124.002 83.4295 124.093 83.0349 123.97 82.6829C113.717 66.7557 116.01 50.0207 131.973 50.02C148.954 50.0182 151.255 66.7612 140.995 82.683C140.874 83.0378 140.964 83.4307 141.232 83.6396C141.44 83.7625 141.675 83.825 141.917 83.825H142.033C154.72 79.7757 163.33 67.9887 163.333 54.6158C163.334 54.6107 162.597 54.6025 162.593 54.6025Z"/>
  </symbol>
  
  <!-- Men Sky icon -->
  <symbol id="icon-men-sky" viewBox="0 0 264 112">
    <path d="M163.948 33.0481C163.822 32.663 163.489 32.3815 163.087 32.3227L159.267 31.767L157.557 28.3046C157.198 27.5749 156.002 27.5749 155.644 28.3046L153.934 31.767L150.113 32.3229C149.711 32.3815 149.378 32.6621 149.251 33.0482C149.127 33.4344 149.23 33.8589 149.521 34.1416L152.287 36.8372L151.634 40.6431C151.566 41.0421 151.708 41.4521 152.004 41.7141C152.299 41.9752 152.719 42.0636 153.101 41.9456L156.779 40.705L160.457 41.9454C160.841 42.0637 161.261 41.9752 161.555 41.7141C161.852 41.4522 161.993 41.0421 161.925 40.6432L161.272 36.8371L164.038 34.1416C164.33 33.8588 164.431 33.4343 163.948 33.0481Z"/>
  </symbol>
</svg>

  <symbol id="icon-nasa" viewBox="0 0 264 112">
    <path d="M161.546 68.1952L144.66 51.1851L146.534 41.9541C147.018 42.1429 147.532 42.2416 148.051 42.2453H148.064C150.448 42.2735 152.404 40.3633 152.432 37.9788C152.461 35.5943 150.55 33.6384 148.166 33.6101C145.781 33.582 143.825 35.4921 143.797 37.8767C143.791 38.3869 143.875 38.8941 144.047 39.3749L134.127 40.5856L117.945 24.32C117.747 24.1175 117.476 24.0023 117.192 24C116.912 24.0015 116.644 24.1129 116.445 24.3104L113.42 27.3184C113.004 27.7349 113.004 28.4101 113.42 28.8267L115.048 30.4779C108.742 42.0737 110.79 56.4335 120.087 65.8037C120.172 65.8853 120.271 65.9513 120.379 65.9989C120.312 66.3599 120.277 66.7261 120.275 67.0933V79.4667H107.475C104.531 79.4701 102.145 81.856 102.141 84.8V86.9333C102.141 87.5224 102.619 88 103.208 88H152.275C152.864 88 153.341 87.5224 153.341 86.9333V84.8C153.338 81.856 150.952 79.4701 148.008 79.4667H135.208V73.9829C137.213 74.4035 139.256 74.6179 141.305 74.6229C146.221 74.6176 151.059 73.392 155.385 71.056L157.021 72.7019C157.22 72.9044 157.491 73.0196 157.775 73.0219C158.055 73.0204 158.323 72.9089 158.521 72.7115L161.546 69.7035C161.963 69.2869 161.963 68.6117 161.546 68.1952ZM146.56 36.4661C147.395 35.6352 148.746 35.6389 149.577 36.4743C150.407 37.3096 150.404 38.6604 149.568 39.4912C149.169 39.8889 148.627 40.1121 148.063 40.112H148.057C146.879 40.1059 145.929 39.1459 145.935 37.9676C145.938 37.4036 146.164 36.8639 146.564 36.4661H146.56ZM144.049 43.4752L142.852 49.3664L140.501 47.0016L144.049 43.4752ZM142.837 41.6715L138.997 45.4891L136.026 42.5024L142.837 41.6715ZM148.008 81.6C149.775 81.6 151.208 83.0327 151.208 84.8V85.8667H104.275V84.8C104.275 83.0327 105.707 81.6 107.475 81.6H148.008ZM133.075 77.3333V79.4667H122.408V77.3333H133.075ZM122.408 75.2V67.0933C122.408 64.5056 124.801 62.4 127.741 62.4C130.682 62.4 133.075 64.5056 133.075 67.0933V75.2H122.408ZM135.208 71.808V67.0933C135.208 63.3291 131.859 60.2667 127.741 60.2667C125.079 60.2259 122.59 61.5809 121.179 63.8389C113.064 55.2913 111.236 42.5485 116.622 32.0647L153.826 69.4816C148.081 72.404 141.495 73.2268 135.208 71.808ZM157.786 70.4405L156.283 68.9291L117.181 29.5915L115.672 28.0789L117.181 26.5749L133.051 42.5344C133.059 42.5344 133.063 42.5483 133.071 42.5536L159.3 68.9365L157.786 70.4405Z" fill="#2E2F42"></path>
  </symbol>

  <symbol id="icon-diagrams" viewBox="0 0 264 112">
    <path d="M129.851 53.9292H131.983V63.5242H129.851V53.9292Z" fill="#4D5AE5"/>
    <path d="M138.38 58.1936H140.512V63.5242H138.38V58.1936Z" fill="#4D5AE5"/>
    <path d="M121.322 61.392H123.454V63.5242H121.322V61.392Z" fill="#4D5AE5"/>
    <path d="M114.926 60.3258H117.058V63.5241H114.926V60.3258Z" fill="#4D5AE5"/>
    <path d="M103.198 80.5819H154.372C156.138 80.5819 157.57 79.1499 157.57 77.3836V73.1192C157.57 71.3529 156.138 69.9209 154.372 69.9209H153.305V43.3343L159.361 37.5977C160.767 38.2905 162.468 37.8699 163.388 36.6003C164.308 35.3312 164.179 33.5836 163.083 32.4634C161.986 31.3431 160.242 31.176 158.953 32.0678C157.664 32.96 157.206 34.6513 157.868 36.0719L153.305 40.3973V37.9376C153.305 36.1713 151.873 34.7393 150.107 34.7393H107.463C105.696 34.7393 104.264 36.1713 104.264 37.9376V69.9209H103.198C101.432 69.9209 100 71.3529 100 73.1192V77.3836C100 79.1499 101.432 80.5819 103.198 80.5819ZM160.768 33.6732C161.357 33.6732 161.834 34.1505 161.834 34.7393C161.834 35.328 161.357 35.8054 160.768 35.8054C160.179 35.8054 159.702 35.328 159.702 34.7393C159.702 34.1505 160.179 33.6732 160.768 33.6732ZM106.397 37.9376C106.397 37.3489 106.874 36.8715 107.463 36.8715H150.107C150.696 36.8715 151.173 37.3489 151.173 37.9376V42.4149L149.041 44.441V40.0698C149.041 39.4811 148.564 39.0037 147.975 39.0037H109.595C109.006 39.0037 108.529 39.4811 108.529 40.0698V66.7225C108.529 67.3113 109.006 67.7886 109.595 67.7886H147.975C148.564 67.7886 149.041 67.3113 149.041 66.7225V47.3738L151.173 45.3535V69.9209H106.397V37.9376ZM115.992 51.797C114.549 51.7929 113.283 52.7538 112.899 54.1442C112.515 55.5346 113.109 57.0094 114.35 57.7455C115.59 58.4815 117.17 58.2967 118.206 57.2936L121.912 59.1531C122.342 59.3686 122.865 59.2676 123.185 58.9079L131.062 50.0453L138.806 55.848C139.222 56.1593 139.802 56.126 140.178 55.7694L146.909 49.3941V65.6564H110.661V41.1359H146.909V46.4566L139.366 53.5997L131.557 47.7455C131.113 47.4134 130.489 47.4758 130.121 47.8897L122.135 56.8751L119.149 55.3821C119.171 55.2541 119.185 55.125 119.19 54.9953C119.19 53.2291 117.758 51.797 115.992 51.797ZM117.058 54.9953C117.058 55.5841 116.58 56.0615 115.992 56.0615C115.403 56.0615 114.926 55.5841 114.926 54.9953C114.926 54.4066 115.403 53.9292 115.992 53.9292C116.58 53.9292 117.058 54.4066 117.058 54.9953ZM123.454 72.0531H134.115V73.1192C134.115 73.7079 133.638 74.1853 133.049 74.1853H124.52C123.932 74.1853 123.454 73.7079 123.454 73.1192V72.0531ZM102.132 73.1192C102.132 72.5304 102.61 72.0531 103.198 72.0531H121.322V73.1192C121.322 74.8855 122.754 76.3175 124.52 76.3175H133.049C134.816 76.3175 136.248 74.8855 136.248 73.1192V72.0531H154.372C154.96 72.0531 155.438 72.5304 155.438 73.1192V77.3836C155.438 77.9724 154.96 78.4497 154.372 78.4497H103.198C102.61 78.4497 102.132 77.9724 102.132 77.3836V73.1192Z" fill="#2E2F42"/>
  </symbol>
</svg>
